<?xml version="1.0" standalone="no"?>
<!DOCTYPE svg PUBLIC "-//W3C//DTD SVG 20010904//EN"
 "http://www.w3.org/TR/2001/REC-SVG-20010904/DTD/svg10.dtd">
<svg version="1.0" xmlns="http://www.w3.org/2000/svg"
 width="574.000000pt" height="574.000000pt" viewBox="0 0 574.000000 574.000000"
 preserveAspectRatio="xMidYMid meet">
<metadata>
Created by potrace 1.14, written by Peter Selinger 2001-2017
</metadata>
<g transform="translate(0.000000,574.000000) scale(0.100000,-0.100000)"
fill="#000000" stroke="none">
<path d="M2244 5623 c-142 -241 -323 -702 -373 -948 -44 -216 -78 -1047 -51
-1225 16 -102 30 -149 72 -232 21 -43 38 -80 38 -83 0 -35 -128 140 -194 266
-49 94 -48 92 -217 808 -60 255 -111 467 -114 469 -9 9 -13 -1 -65 -163 -70
-218 -136 -479 -151 -599 -23 -189 2 -474 58 -646 63 -196 154 -325 265 -375
57 -26 76 -29 200 -33 76 -3 136 -8 133 -12 -2 -4 -37 -10 -78 -13 -91 -8
-184 -27 -357 -74 -179 -48 -235 -72 -443 -191 -265 -152 -415 -212 -714 -288
-62 -16 -113 -32 -113 -36 0 -11 201 -85 336 -122 242 -67 387 -85 554 -66
162 18 425 75 628 136 46 14 88 24 93 22 6 -2 -1 -20 -15 -40 l-25 -37 27 5
c15 2 63 11 107 19 124 23 124 23 67 -40 -92 -100 -147 -226 -175 -395 -9 -52
-33 -248 -53 -435 -34 -317 -36 -355 -31 -565 5 -202 33 -507 65 -690 l8 -45
97 171 c217 382 270 523 410 1089 119 478 153 668 142 802 -6 71 -5 83 8 83
14 0 67 -116 67 -148 0 -7 19 11 43 39 23 29 47 54 52 55 6 2 80 -97 165 -219
l155 -222 155 222 c85 122 160 221 165 219 6 -1 29 -26 53 -55 23 -28 42 -46
42 -39 0 7 11 43 25 79 26 66 39 78 87 79 15 0 15 -4 -2 -53 -52 -147 -35
-279 111 -862 137 -548 191 -691 406 -1069 l97 -171 8 45 c32 183 60 488 65
690 5 210 3 248 -31 565 -20 187 -44 383 -53 435 -28 169 -83 295 -175 395
-57 63 -57 63 67 40 44 -8 92 -17 107 -19 l27 -5 -25 37 c-14 20 -21 38 -15
40 5 2 47 -8 93 -22 203 -61 466 -118 628 -136 167 -19 312 -1 554 66 135 37
336 111 336 122 0 4 -51 20 -112 36 -300 76 -450 136 -715 288 -208 119 -264
143 -443 191 -173 47 -266 66 -357 74 -41 3 -76 9 -78 13 -3 4 57 9 133 12
124 4 143 7 200 33 111 50 202 179 265 375 56 172 81 457 58 646 -15 120 -81
381 -151 599 -52 162 -56 172 -65 163 -3 -2 -54 -214 -114 -469 -169 -716
-168 -714 -217 -808 -66 -126 -194 -301 -194 -266 0 3 17 40 38 83 42 83 56
130 72 232 27 178 -7 1008 -51 1225 -45 224 -228 696 -359 924 -37 63 -71 116
-76 118 -5 2 -20 -106 -32 -244 -13 -137 -31 -327 -40 -423 -18 -197 -21 -956
-5 -1330 5 -113 9 -206 9 -206 -1 -1 -57 40 -126 91 l-125 92 -65 -62 c-36
-34 -90 -84 -120 -112 l-55 -51 -55 51 c-30 28 -84 78 -120 112 l-65 62 -125
-92 c-69 -51 -125 -92 -126 -91 0 0 4 93 9 206 16 374 13 1133 -5 1330 -9 96
-27 286 -40 423 -12 136 -26 247 -30 247 -4 0 -33 -44 -64 -97z m122 -2692
c76 -36 183 -107 248 -164 l49 -44 -9 -116 -9 -116 -175 70 -175 70 -95 -5
c-52 -3 -116 -12 -142 -20 -27 -8 -48 -10 -48 -6 0 5 16 45 35 90 l35 82 -61
79 c-34 44 -60 81 -58 83 13 11 131 24 229 25 108 1 119 -1 176 -28z m1333 17
c36 -6 68 -13 70 -14 2 -2 -24 -39 -58 -83 l-61 -79 35 -82 c19 -45 35 -85 35
-90 0 -4 -21 -2 -47 6 -27 8 -91 17 -143 20 l-95 5 -175 -70 -175 -70 -9 116
-9 116 49 44 c65 57 172 128 248 164 55 26 71 29 165 29 57 0 133 -5 170 -12z"/>
</g>
</svg>
