<svg id="Discord" xmlns="http://www.w3.org/2000/svg" viewBox="0 0 256 194.02"><defs><style>.cls-1{fill:#fff;}</style></defs><title>discord</title><g id="图层_2" data-name="图层 2"><g id="Discord_Logos" data-name="Discord Logos"><g id="Discord_Logo_-_Large_-_White" data-name="Discord Logo - Large - White"><path class="cls-1" d="M216.86,47.24A211.53,211.53,0,0,0,164,31a145.92,145.92,0,0,0-6.76,13.75,196.57,196.57,0,0,0-58.62,0A145.92,145.92,0,0,0,91.9,31,213.29,213.29,0,0,0,39,47.28C5.62,96.73-3.44,145,1.09,192.49h0A212.73,212.73,0,0,0,65.86,225a156.18,156.18,0,0,0,13.88-22.37,137.66,137.66,0,0,1-21.85-10.43c1.83-1.33,3.62-2.7,5.35-4a152.15,152.15,0,0,0,129.51,0c1.76,1.43,3.55,2.8,5.36,4a137.71,137.71,0,0,1-21.89,10.45A155.42,155.42,0,0,0,190.1,225a211.87,211.87,0,0,0,64.81-32.5h0C260.23,137.38,245.83,89.6,216.86,47.24Zm-131.39,116c-12.62,0-23-11.46-23-25.55s10.07-25.66,23-25.66,23.3,11.56,23.08,25.66S98.34,163.26,85.47,163.26Zm85.06,0c-12.65,0-23-11.46-23-25.55s10.07-25.66,23-25.66,23.23,11.56,23,25.66S183.39,163.26,170.53,163.26Z" transform="translate(0 -30.99)"/></g></g></g></svg>