<svg id="email" xmlns="http://www.w3.org/2000/svg" viewBox="0 0 256 181.04"><defs><style>.cls-1{fill:#fff;}</style></defs><title>email</title><path class="cls-1" d="M95.24,123.75h0L128,156.52,245.9,38.62a15.85,15.85,0,0,0-5.9-1.14H16a15.85,15.85,0,0,0-5.9,1.14Z" transform="translate(0 -37.48)"/><path class="cls-1" d="M256,53.48a16,16,0,0,0-1.42-6.57L174,127.5l80.89,80.89a15.93,15.93,0,0,0,1.13-5.87Z" transform="translate(0 -37.48)"/><path class="cls-1" d="M1.42,46.91A16,16,0,0,0,0,53.48v149a16,16,0,0,0,1.42,6.57L82.51,128Z" transform="translate(0 -37.48)"/><path class="cls-1" d="M165.5,136l-33.26,33.26a6,6,0,0,1-8.48,0L91,136.48l-80.9,80.9a15.85,15.85,0,0,0,5.9,1.14H240a15.8,15.8,0,0,0,6.6-1.44Z" transform="translate(0 -37.48)"/></svg>