<svg id="Layer_1" data-name="Layer 1" xmlns="http://www.w3.org/2000/svg" viewBox="0 0 256 256"><defs><style>.cls-1{fill:#fff;fill-rule:evenodd;}</style></defs><title>steam</title><path class="cls-1" d="M132.92.1A128.17,128.17,0,0,1,256,127.83h-.08A128.23,128.23,0,0,1,4.32,162.75l49.17,20.31a36.27,36.27,0,0,0,71.87-7.18v-1.7L169,143.09h1.11a48.33,48.33,0,1,0-48.37-48.34v.64L91.16,139.64h-2a35.68,35.68,0,0,0-20.4,6.3L0,117.55A128.19,128.19,0,0,1,132.92.1" transform="translate(0)"/><path class="cls-1" d="M114.17,186.31a27.18,27.18,0,0,1-49.64,1.36l15.87,6.51a20.35,20.35,0,0,0,7.67,1.54,20,20,0,0,0,20.07-20,19.79,19.79,0,0,0-1.51-7.67A20,20,0,0,0,95.8,157.15L79.53,150.4a27.22,27.22,0,0,1,34.76,35.91Z" transform="translate(0)"/><path class="cls-1" d="M192.78,72a32.23,32.23,0,1,0,9.44,22.77A32.25,32.25,0,0,0,192.78,72Zm-5.66,39.83A24.21,24.21,0,0,1,170,118.93h0a24.24,24.24,0,1,1,17.11-7.11Z" transform="translate(0)"/></svg>