<svg id="Twittter" xmlns="http://www.w3.org/2000/svg" viewBox="0 0 256 208.02"><defs><style>.cls-1{fill:#fff;}</style></defs><title>twitter</title><path class="cls-1" d="M229.79,75.78c.16,2.25.16,4.51.16,6.79C230,152,177.11,232,80.51,232v0A148.72,148.72,0,0,1,0,208.42a106.58,106.58,0,0,0,12.5.76,105.43,105.43,0,0,0,65.23-22.53,52.59,52.59,0,0,1-49.07-36.47,52.24,52.24,0,0,0,23.72-.91A52.52,52.52,0,0,1,10.24,97.79v-.66a52.32,52.32,0,0,0,23.84,6.57A52.58,52.58,0,0,1,17.83,33.57,149,149,0,0,0,126.07,88.44a52.57,52.57,0,0,1,89.5-47.9,105.29,105.29,0,0,0,33.36-12.75,52.71,52.71,0,0,1-23.09,29.05A104.68,104.68,0,0,0,256,48.57a106.63,106.63,0,0,1-26.21,27.21Z" transform="translate(0 -23.99)"/></svg>