<svg id="YouTube" xmlns="http://www.w3.org/2000/svg" viewBox="0 0 256 180.36"><defs><style>.cls-1{fill:#fff;}</style></defs><title>youtube</title><path class="cls-1" d="M250.65,66A32.19,32.19,0,0,0,228,43.2c-20-5.38-100-5.38-100-5.38s-80,0-100,5.38A32.19,32.19,0,0,0,5.35,66C0,86.08,0,128,0,128s0,41.92,5.35,62A32.19,32.19,0,0,0,28,212.8c20,5.38,100,5.38,100,5.38s80.05,0,100-5.38A32.19,32.19,0,0,0,250.65,190c5.35-20.1,5.35-62,5.35-62S256,86.08,250.65,66ZM101.82,166.06V89.94L168.73,128Z" transform="translate(0 -37.82)"/></svg>